HIERARCHY
ROOT Hips
{
 OFFSET 0.000000 0.000000 0.000000
 CHANNELS 6 Xposition Yposition Zposition Yrotation Xrotation Zrotation
 JOINT Chest
 {
  OFFSET 0.000000 8.777825 -6.552462
  CHANNELS 3 Yrotation Xrotation Zrotation
  JOINT Chest2
  {
   OFFSET 0.000000 7.383841 -0.000881
   CHANNELS 3 Yrotation Xrotation Zrotation
   JOINT Chest3
   {
    OFFSET 0.000000 10.555540 0.000455
    CHANNELS 3 Yrotation Xrotation Zrotation
    JOINT Chest4
    {
     OFFSET 0.000000 10.885962 0.000501
     CHANNELS 3 Yrotation Xrotation Zrotation
     JOINT Neck
     {
      OFFSET 0.000000 17.548373 -0.000425
      CHANNELS 3 Yrotation Xrotation Zrotation
      JOINT Head
      {
       OFFSET 0.000000 9.021468 0.000000
       CHANNELS 3 Yrotation Xrotation Zrotation
       End Site
       {
        OFFSET 0.000000 13.152816 0.000000
       }
      }
     }
     JOINT RightCollar
     {
      OFFSET -2.801089 10.967333 -0.000212
      CHANNELS 3 Yrotation Xrotation Zrotation
      JOINT RightShoulder
      {
       OFFSET -15.865440 0.000000 0.000000
       CHANNELS 3 Yrotation Xrotation Zrotation
       JOINT RightElbow
       {
        OFFSET -26.521401 0.000000 0.000000
        CHANNELS 3 Yrotation Xrotation Zrotation
        JOINT RightWrist
        {
         OFFSET -23.907282 0.000000 -0.001304
         CHANNELS 3 Yrotation Xrotation Zrotation
         End Site
         {
          OFFSET -17.515647 0.653783 0.097580
         }
        }
       }
      }
     }
     JOINT LeftCollar
     {
      OFFSET 2.801089 10.967333 -0.000212
      CHANNELS 3 Yrotation Xrotation Zrotation
      JOINT LeftShoulder
      {
       OFFSET 15.865440 0.000000 0.000000
       CHANNELS 3 Yrotation Xrotation Zrotation
       JOINT LeftElbow
       {
        OFFSET 26.521401 0.000000 0.000000
        CHANNELS 3 Yrotation Xrotation Zrotation
        JOINT LeftWrist
        {
         OFFSET 23.907282 0.000000 -0.001304
         CHANNELS 3 Yrotation Xrotation Zrotation
         End Site
         {
          OFFSET 17.515647 0.653783 0.097580
         }
        }
       }
      }
     }
    }
   }
  }
 }
 JOINT RightHip
 {
  OFFSET -9.477029 -0.000305 0.000048
  CHANNELS 3 Yrotation Xrotation Zrotation
  JOINT RightKnee
  {
   OFFSET 0.000000 -47.500497 0.009605
   CHANNELS 3 Yrotation Xrotation Zrotation
   JOINT RightAnkle
   {
    OFFSET 0.000000 -41.890050 0.114765
    CHANNELS 3 Yrotation Xrotation Zrotation
    JOINT RightToe
    {
     OFFSET 0.000000 -8.242463 17.660639
     CHANNELS 3 Yrotation Xrotation Zrotation
     End Site
     {
      OFFSET 0.000000 -1.027352 5.005374
     }
    }
   }
  }
 }
 JOINT LeftHip
 {
  OFFSET 9.477029 -0.002494 0.000395
  CHANNELS 3 Yrotation Xrotation Zrotation
  JOINT LeftKnee
  {
   OFFSET 0.000000 -47.500497 0.009605
   CHANNELS 3 Yrotation Xrotation Zrotation
   JOINT LeftAnkle
   {
    OFFSET 0.000000 -41.890050 0.114765
    CHANNELS 3 Yrotation Xrotation Zrotation
    JOINT LeftToe
    {
     OFFSET 0.000000 -8.242463 17.660639
     CHANNELS 3 Yrotation Xrotation Zrotation
     End Site
     {
      OFFSET 0.000000 -1.027352 5.005374
     }
    }
   }
  }
 }
}
MOTION
Frames: 17
Frame Time: 0.004167
0.000000 100.478824 0.000000 0.000000 0.000000 0.000000 0.000000 0.000000 0.000000 0.000000 0.000000 0.000000 0.000000 0.000000 0.000000 0.000000 0.000000 0.000000 0.000000 0.000000 0.000000 0.000000 0.000000 0.000000 0.000000 0.000000 0.000000 0.000000 0.000000 0.000000 0.000000 0.000000 0.000000 0.000000 0.000000 0.000000 0.000000 0.000000 0.000000 0.000000 0.000000 0.000000 0.000000 0.000000 0.000000 0.000000 0.000000 0.000000 0.000000 0.000000 0.000000 0.000000 0.000000 0.000000 0.000000 0.000000 0.000000 0.000000 0.000000 0.000000 0.000000 0.000000 0.000000 0.000000 0.000000 0.000000 0.000000 0.000000 0.000000 0.000000 0.000000 0.000000
11.518113 99.110345 12.119995 3.270295 8.632698 0.127310 0.197833 0.061175 -0.744435 0.169176 -13.493797 -0.367444 0.113031 -0.421497 -0.231466 0.020783 9.378847 -0.067074 -0.911004 -0.879477 0.861990 -1.702562 -1.622253 1.612117 -0.624340 -4.909583 8.545949 -3.032087 -3.792455 73.031774 7.141357 1.858120 3.239478 -0.896998 -2.848386 12.158823 0.438943 -6.543254 -9.031925 4.763045 -2.914212 -71.879146 -8.372448 -2.528003 -5.843755 0.880549 -2.919267 -10.049494 -2.350423 -3.440221 -0.594109 -0.255007 0.728339 0.365098 -0.037199 -7.302969 1.522778 0.000000 0.000000 -0.000000 4.629183 -4.395404 -0.299106 -0.462173 1.109472 -0.100515 2.195716 -6.301892 -1.010390 0.000000 -0.000000 0.000000
11.526165 99.105430 12.117882 3.273094 8.613856 0.128327 0.196031 0.067390 -0.742248 0.168103 -13.490835 -0.366345 0.112310 -0.419423 -0.230861 0.020608 9.379440 -0.066899 -0.911329 -0.878858 0.858892 -1.703120 -1.621139 1.606359 -0.621685 -4.894101 8.547890 -3.025249 -3.802456 73.010398 7.144252 1.866605 3.244198 -0.899113 -2.848517 12.162672 0.441308 -6.527816 -9.038964 4.768273 -2.914076 -71.885372 -8.373334 -2.532702 -5.845682 0.864807 -2.919781 -10.033223 -2.353101 -3.428934 -0.609468 -0.255912 0.745312 0.387184 -0.037950 -7.309589 1.515153 -0.000000 -0.000000 0.000000 4.631480 -4.378001 -0.281022 -0.462295 1.110302 -0.145092 2.192609 -6.301431 -0.987783 0.000000 -0.000000 -0.000000
11.534307 99.100377 12.115767 3.275983 8.594842 0.129369 0.194109 0.073702 -0.740002 0.166967 -13.487827 -0.365215 0.111545 -0.417316 -0.230243 0.020421 9.380043 -0.066720 -0.911702 -0.878225 0.855782 -1.703768 -1.619998 1.600580 -0.618822 -4.878432 8.549741 -3.018130 -3.812554 72.989039 7.147410 1.875224 3.248999 -0.901280 -2.848626 12.166531 0.443976 -6.512265 -9.046123 4.773549 -2.914103 -71.891976 -8.374012 -2.537905 -5.847529 0.848721 -2.920558 -10.017003 -2.355656 -3.417522 -0.625030 -0.256879 0.762540 0.409649 -0.038853 -7.316392 1.507315 0.000000 -0.000000 0.000000 4.633949 -4.360296 -0.262653 -0.462416 1.110874 -0.190320 2.189251 -6.300906 -0.964838 -0.000000 0.000000 -0.000000
11.542499 99.095244 12.113651 3.278924 8.575728 0.130424 0.192118 0.080068 -0.737721 0.165794 -13.484793 -0.364067 0.110755 -0.415190 -0.229619 0.020227 9.380651 -0.066540 -0.912104 -0.877583 0.852666 -1.704468 -1.618842 1.594788 -0.615842 -4.862655 8.551541 -3.010849 -3.822706 72.967688 7.150719 1.883919 3.253849 -0.903476 -2.848723 12.170395 0.446815 -6.496650 -9.053349 4.778853 -2.914223 -71.898797 -8.374572 -2.543396 -5.849329 0.832438 -2.921483 -10.000814 -2.358140 -3.406039 -0.640708 -0.257878 0.779915 0.432332 -0.039843 -7.323301 1.499356 0.000000 -0.000000 -0.000000 4.636517 -4.342420 -0.244120 -0.462535 1.111302 -0.235922 2.185751 -6.300345 -0.941701 0.000000 -0.000000 0.000000
11.550704 99.090091 12.111534 3.281878 8.556590 0.131483 0.190109 0.086448 -0.735432 0.164612 -13.481752 -0.362914 0.109959 -0.413060 -0.228993 0.020032 9.381260 -0.066359 -0.912512 -0.876939 0.849548 -1.705181 -1.617681 1.588994 -0.612834 -4.846851 8.553329 -3.003526 -3.832869 72.946337 7.154069 1.892632 3.258710 -0.905678 -2.848816 12.174261 0.449696 -6.481018 -9.060591 4.784163 -2.914365 -71.905672 -8.375103 -2.548958 -5.851119 0.816102 -2.922442 -9.984635 -2.360604 -3.394539 -0.656415 -0.258878 0.797326 0.455068 -0.040854 -7.330237 1.491368 -0.000000 0.000000 0.000000 4.639109 -4.324502 -0.225545 -0.462654 1.111696 -0.281616 2.182214 -6.299775 -0.918516 0.000000 -0.000000 0.000000
11.558883 99.084978 12.109418 3.284806 8.537502 0.132533 0.188134 0.092801 -0.733161 0.163447 -13.478725 -0.361771 0.109175 -0.410940 -0.228371 0.019839 9.381866 -0.066179 -0.912905 -0.876300 0.846433 -1.705867 -1.616529 1.583205 -0.609886 -4.831100 8.555144 -2.996281 -3.843000 72.924979 7.157349 1.901305 3.263549 -0.907863 -2.848916 12.178125 0.452487 -6.465417 -9.067798 4.789458 -2.914460 -71.912441 -8.375693 -2.554375 -5.852933 0.799860 -2.923320 -9.968445 -2.363101 -3.383073 -0.672066 -0.259850 0.814666 0.477695 -0.041821 -7.337121 1.483440 0.000000 0.000000 -0.000000 4.641651 -4.306673 -0.207047 -0.462773 1.112170 -0.327124 2.178751 -6.299223 -0.895427 0.000000 -0.000000 0.000000
11.566999 99.079964 12.107303 3.287667 8.518536 0.133563 0.186244 0.099085 -0.730934 0.162328 -13.475730 -0.360651 0.108422 -0.408842 -0.227758 0.019655 9.382466 -0.066001 -0.913264 -0.875671 0.843327 -1.706487 -1.615397 1.577431 -0.607088 -4.815483 8.557024 -2.989235 -3.853056 72.903604 7.160446 1.909880 3.268329 -0.910011 -2.849031 12.181983 0.455058 -6.449898 -9.074919 4.794717 -2.914437 -71.918940 -8.376432 -2.559433 -5.854807 0.783858 -2.924002 -9.952223 -2.365683 -3.371697 -0.687574 -0.260765 0.831824 0.500051 -0.042678 -7.343874 1.475665 0.000000 -0.000000 0.000000 4.644070 -4.289062 -0.188749 -0.462893 1.112835 -0.372166 2.175467 -6.298719 -0.872579 -0.000000 -0.000000 0.000000
11.575014 99.075109 12.105192 3.290423 8.499767 0.134562 0.184491 0.105258 -0.728776 0.161281 -13.472788 -0.359566 0.107718 -0.406781 -0.227159 0.019485 9.383055 -0.065828 -0.913565 -0.875059 0.840234 -1.707003 -1.614297 1.571682 -0.604528 -4.800081 8.559008 -2.982507 -3.862995 72.882207 7.163250 1.918300 3.273016 -0.912097 -2.849171 12.185831 0.457278 -6.434506 -9.081902 4.799918 -2.914227 -71.925008 -8.377408 -2.563913 -5.856774 0.768242 -2.924375 -9.935949 -2.368404 -3.360464 -0.702853 -0.261593 0.848691 0.521972 -0.043360 -7.350418 1.468134 0.000000 0.000000 0.000000 4.646290 -4.271798 -0.170771 -0.463014 1.113803 -0.416462 2.172472 -6.298289 -0.850116 -0.000000 -0.000000 -0.000000
11.582889 99.070471 12.103085 3.293035 8.481270 0.135519 0.182926 0.111280 -0.726714 0.160334 -13.469919 -0.358532 0.107081 -0.404772 -0.226580 0.019332 9.383630 -0.065661 -0.913789 -0.874470 0.837159 -1.707375 -1.613241 1.565966 -0.602297 -4.784975 8.561135 -2.976218 -3.872775 72.860779 7.165649 1.926506 3.277575 -0.914101 -2.849345 12.189666 0.459016 -6.419292 -9.088696 4.805041 -2.913758 -71.930482 -8.378711 -2.567601 -5.858871 0.753159 -2.924325 -9.919600 -2.371314 -3.349427 -0.717818 -0.262305 0.865159 0.543295 -0.043802 -7.356674 1.460937 0.000000 -0.000000 0.000000 4.648237 -4.255012 -0.153235 -0.463139 1.115185 -0.459734 2.169873 -6.297962 -0.828182 0.000000 -0.000000 0.000000
11.590587 99.066112 12.100982 3.295462 8.463118 0.136424 0.181601 0.117109 -0.724774 0.159513 -13.467142 -0.357561 0.106530 -0.402826 -0.226025 0.019203 9.384186 -0.065500 -0.913915 -0.873911 0.834108 -1.707564 -1.612241 1.560293 -0.600483 -4.770244 8.563443 -2.970488 -3.882352 72.839312 7.167531 1.934442 3.281970 -0.915998 -2.849562 12.193482 0.460143 -6.404304 -9.095250 4.810064 -2.912962 -71.935200 -8.380430 -2.570280 -5.861131 0.738756 -2.923736 -9.903155 -2.374467 -3.338639 -0.732383 -0.262872 0.881118 0.563857 -0.043938 -7.362563 1.454166 0.000000 -0.000000 -0.000000 4.649837 -4.238833 -0.136263 -0.463268 1.117093 -0.501700 2.167777 -6.297765 -0.806923 0.000000 -0.000000 0.000000
11.598070 99.062089 12.098887 3.297666 8.445384 0.137263 0.180568 0.122704 -0.722981 0.158847 -13.464476 -0.356666 0.106084 -0.400960 -0.225501 0.019103 9.384719 -0.065349 -0.913920 -0.873388 0.831085 -1.707531 -1.611308 1.554672 -0.599175 -4.755970 8.565972 -2.965435 -3.891685 72.817799 7.168785 1.942048 3.286167 -0.917768 -2.849832 12.197277 0.460527 -6.389590 -9.101513 4.814966 -2.911768 -71.939001 -8.382653 -2.571735 -5.863589 0.725181 -2.922496 -9.886593 -2.377914 -3.328155 -0.746461 -0.263266 0.896459 0.583496 -0.043703 -7.368007 1.447911 -0.000000 0.000000 -0.000000 4.651016 -4.223390 -0.119976 -0.463403 1.119637 -0.542082 2.166293 -6.297727 -0.786481 0.000000 -0.000000 0.000000
11.605299 99.058462 12.096798 3.299609 8.428144 0.138028 0.179878 0.128023 -0.721360 0.158362 -13.461943 -0.355861 0.105761 -0.399186 -0.225013 0.019035 9.385227 -0.065208 -0.913784 -0.872907 0.828095 -1.707238 -1.610455 1.549111 -0.598462 -4.742233 8.568760 -2.961181 -3.900731 72.796233 7.169299 1.949269 3.290129 -0.919387 -2.850164 12.201046 0.460038 -6.375199 -9.107434 4.819727 -2.910107 -71.941722 -8.385470 -2.571748 -5.866280 0.712581 -2.920490 -9.869892 -2.381710 -3.318029 -0.759967 -0.263457 0.911074 0.602047 -0.043032 -7.372926 1.442264 -0.000000 0.000000 -0.000000 4.651700 -4.208812 -0.104497 -0.463545 1.122929 -0.580599 2.165528 -6.297876 -0.767003 0.000000 0.000000 -0.000000
11.612237 99.055292 12.094718 3.301249 8.411470 0.138707 0.179583 0.133025 -0.719939 0.158086 -13.459560 -0.355160 0.105580 -0.397518 -0.224565 0.019006 9.385703 -0.065078 -0.913486 -0.872474 0.825144 -1.706644 -1.609692 1.543621 -0.598433 -4.729114 8.571845 -2.957845 -3.909449 72.774607 7.168962 1.956045 3.293822 -0.920834 -2.850568 12.204785 0.458547 -6.361178 -9.112961 4.824325 -2.907908 -71.943200 -8.388969 -2.570104 -5.869239 0.701104 -2.917605 -9.853030 -2.385905 -3.308313 -0.772815 -0.263418 0.924852 0.619349 -0.041859 -7.377242 1.437316 -0.000000 -0.000000 0.000000 4.651813 -4.195229 -0.089946 -0.463695 1.127079 -0.616973 2.165590 -6.298240 -0.748632 0.000000 -0.000000 0.000000
11.619433 99.052386 12.092477 3.302809 8.394043 0.139315 0.179644 0.138098 -0.718619 0.157991 -13.457145 -0.354514 0.105521 -0.395827 -0.224128 0.019012 9.386187 -0.064952 -0.912949 -0.872123 0.822004 -1.705604 -1.609087 1.537779 -0.599285 -4.715577 8.575705 -2.955388 -3.918511 72.751047 7.167798 1.962963 3.297652 -0.922199 -2.851061 12.208828 0.455488 -6.346348 -9.118530 4.829175 -2.904647 -71.943487 -8.393919 -2.565882 -5.872969 0.689930 -2.913165 -9.833895 -2.391057 -3.298212 -0.786049 -0.263053 0.938744 0.636837 -0.040056 -7.381145 1.432749 0.000000 -0.000000 -0.000000 4.651344 -4.181606 -0.075286 -0.463789 1.132454 -0.653823 2.166360 -6.298822 -0.729953 -0.000000 0.000000 0.000000
11.626350 99.049961 12.090250 3.304268 8.377179 0.139789 0.179998 0.142870 -0.717492 0.158055 -13.454873 -0.353967 0.105571 -0.394236 -0.223736 0.019046 9.386641 -0.064839 -0.912196 -0.871924 0.818926 -1.704167 -1.608765 1.532050 -0.601008 -4.702624 8.580162 -2.954049 -3.927223 72.727322 7.166044 1.969562 3.301429 -0.923379 -2.851584 12.212883 0.450915 -6.331792 -9.123745 4.833946 -2.900400 -71.942669 -8.400192 -2.559064 -5.877332 0.679871 -2.907315 -9.813476 -2.396865 -3.288460 -0.798715 -0.262357 0.951648 0.653325 -0.037804 -7.384293 1.428891 0.000000 0.000000 0.000000 4.650389 -4.168929 -0.061649 -0.463763 1.138545 -0.688300 2.167583 -6.299532 -0.712342 -0.000000 -0.000000 -0.000000
11.633017 99.047958 12.088034 3.305593 8.360816 0.140153 0.180632 0.147373 -0.716537 0.158270 -13.452731 -0.353508 0.105723 -0.392736 -0.223383 0.019107 9.387070 -0.064737 -0.911265 -0.871836 0.815898 -1.702400 -1.608652 1.526412 -0.603462 -4.690198 8.585082 -2.953659 -3.935632 72.703476 7.163709 1.975850 3.305112 -0.924397 -2.852143 12.216941 0.445110 -6.317501 -9.128637 4.838630 -2.895378 -71.940840 -8.407498 -2.550149 -5.882177 0.670810 -2.900331 -9.792164 -2.403199 -3.279031 -0.810858 -0.261389 0.963710 0.668869 -0.035142 -7.386804 1.425660 0.000000 0.000000 -0.000000 4.648983 -4.157103 -0.048900 -0.463661 1.145301 -0.720719 2.169290 -6.300375 -0.695689 -0.000000 -0.000000 -0.000000
